<?xml version="1.0" encoding="UTF-8"?>
<!DOCTYPE svg PUBLIC "-//W3C//DTD SVG 1.1//EN" "http://www.w3.org/Graphics/SVG/1.1/DTD/svg11.dtd">
<svg xmlns="http://www.w3.org/2000/svg" version="1.1" width="422px" height="394px" style="shape-rendering:geometricPrecision; text-rendering:geometricPrecision; image-rendering:optimizeQuality; fill-rule:evenodd; clip-rule:evenodd" xmlns:xlink="http://www.w3.org/1999/xlink">
<g><path style="opacity:0.98" fill="#0798ee" d="M 107.5,215.5 C 80.7602,231.567 58.0935,252.234 39.5,277.5C 39.3333,221.832 39.5,166.166 40,110.5C 41.7546,102.499 45.9213,95.9993 52.5,91C 98.5,64.3333 144.5,37.6667 190.5,11C 194.219,8.63609 198.219,7.13609 202.5,6.5C 202.333,32.5021 202.5,58.5021 203,84.5C 203.945,96.5561 208.779,106.723 217.5,115C 234.833,125.333 252.167,135.667 269.5,146C 277.013,154.1 275.68,160.433 265.5,165C 260.484,166.921 255.484,166.921 250.5,165C 226.831,150.163 202.831,135.83 178.5,122C 150.207,112.46 125.373,117.96 104,138.5C 87.5241,160.533 86.1908,183.533 100,207.5C 102.028,210.692 104.528,213.359 107.5,215.5 Z"/></g>
<g><path style="opacity:0.978" fill="#0798ee" d="M 380.5,176.5 C 362.294,173.188 343.961,170.855 325.5,169.5C 326.961,156.051 323.128,144.384 314,134.5C 310.133,130.298 305.967,126.465 301.5,123C 287.835,115.503 274.502,107.503 261.5,99C 250.701,92.2521 244.867,82.4188 244,69.5C 242.355,52.8482 242.188,36.1816 243.5,19.5C 283.167,42.3333 322.833,65.1667 362.5,88C 372.387,93.2755 378.221,101.442 380,112.5C 380.5,133.831 380.667,155.164 380.5,176.5 Z"/></g>
<g><path style="opacity:0.945" fill="#0798ee" d="M 197.5,179.5 C 184.911,182.294 172.578,185.96 160.5,190.5C 148.64,183.187 147.64,174.687 157.5,165C 161.595,162.78 165.928,162.113 170.5,163C 179.935,167.966 188.935,173.466 197.5,179.5 Z"/></g>
<g><path style="opacity:0.983" fill="#0985f1" d="M 325.5,169.5 C 343.961,170.855 362.294,173.188 380.5,176.5C 380.667,211.835 380.5,247.168 380,282.5C 378.346,292.477 373.179,299.977 364.5,305C 322,329.5 279.5,354 237,378.5C 237.114,347.67 237.614,316.837 238.5,286C 238.638,268.387 234.472,251.887 226,236.5C 222.535,232.033 218.702,227.867 214.5,224C 196.268,213.059 178.268,201.892 160.5,190.5C 172.578,185.96 184.911,182.294 197.5,179.5C 214.639,190.24 231.973,200.74 249.5,211C 274.022,220.279 295.522,215.779 314,197.5C 320.317,189.197 324.151,179.864 325.5,169.5 Z"/></g>
<g><path style="opacity:0.987" fill="#0985f1" d="M 107.5,215.5 C 131.948,230.108 156.281,244.941 180.5,260C 189.233,266.751 194.733,275.584 197,286.5C 197.667,319.833 197.667,353.167 197,386.5C 147.751,358.126 98.5848,329.626 49.5,301C 42.7686,294.646 39.4352,286.813 39.5,277.5C 58.0935,252.234 80.7602,231.567 107.5,215.5 Z"/></g>
</svg>
